<?xml version="1.0" encoding="UTF-8"?>
<svg xmlns="http://www.w3.org/2000/svg" xmlns:xlink="http://www.w3.org/1999/xlink" width="126px" height="px" viewBox="0 0 126 48" version="1.1">
<defs>
<linearGradient id="linear0" gradientUnits="userSpaceOnUse" x1="75.3011" y1="26.3926" x2="75.3011" y2="39.7204" >
<stop offset="0" style="stop-color:rgb(100%,53.333333%,0%);stop-opacity:1;"/>
<stop offset="1" style="stop-color:rgb(100%,40%,0%);stop-opacity:1;"/>
</linearGradient>
<linearGradient id="linear1" gradientUnits="userSpaceOnUse" x1="85.4268" y1="19.3076" x2="85.4268" y2="39.253" >
<stop offset="0" style="stop-color:rgb(100%,53.333333%,0%);stop-opacity:1;"/>
<stop offset="1" style="stop-color:rgb(100%,40%,0%);stop-opacity:1;"/>
</linearGradient>
<linearGradient id="linear2" gradientUnits="userSpaceOnUse" x1="64.0509" y1="26.3418" x2="64.0509" y2="39.2532" >
<stop offset="0" style="stop-color:rgb(100%,53.333333%,0%);stop-opacity:1;"/>
<stop offset="1" style="stop-color:rgb(100%,40%,0%);stop-opacity:1;"/>
</linearGradient>
<linearGradient id="linear3" gradientUnits="userSpaceOnUse" x1="51.9505" y1="26.3936" x2="51.9505" y2="39.7199" >
<stop offset="0" style="stop-color:rgb(100%,53.333333%,0%);stop-opacity:1;"/>
<stop offset="1" style="stop-color:rgb(100%,40%,0%);stop-opacity:1;"/>
</linearGradient>
<linearGradient id="linear4" gradientUnits="userSpaceOnUse" x1="95.4113" y1="26.3926" x2="95.4113" y2="39.7204" >
<stop offset="0" style="stop-color:rgb(100%,53.333333%,0%);stop-opacity:1;"/>
<stop offset="1" style="stop-color:rgb(100%,40%,0%);stop-opacity:1;"/>
</linearGradient>
<linearGradient id="linear5" gradientUnits="userSpaceOnUse" x1="36.6154" y1="26.3926" x2="36.6154" y2="39.7204" >
<stop offset="0" style="stop-color:rgb(100%,53.333333%,0%);stop-opacity:1;"/>
<stop offset="1" style="stop-color:rgb(100%,40%,0%);stop-opacity:1;"/>
</linearGradient>
<linearGradient id="linear6" gradientUnits="userSpaceOnUse" x1="112.006" y1="19.3076" x2="112.006" y2="39.7199" >
<stop offset="0" style="stop-color:rgb(100%,53.333333%,0%);stop-opacity:1;"/>
<stop offset="1" style="stop-color:rgb(100%,40%,0%);stop-opacity:1;"/>
</linearGradient>
<linearGradient id="linear7" gradientUnits="userSpaceOnUse" x1="19.2312" y1="3.88477" x2="19.2312" y2="32.2174" >
<stop offset="0" style="stop-color:rgb(100%,53.333333%,0%);stop-opacity:1;"/>
<stop offset="1" style="stop-color:rgb(100%,40%,0%);stop-opacity:1;"/>
</linearGradient>
</defs>
<g id="surface1">
<path style=" stroke:none;fill-rule:nonzero;fill:url(#linear0);" d="M 75.300781 26.394531 C 71.578125 26.394531 68.550781 29.382812 68.550781 33.054688 C 68.550781 36.730469 71.578125 39.71875 75.300781 39.71875 C 79.023438 39.71875 82.050781 36.730469 82.050781 33.054688 C 82.050781 29.382812 79.023438 26.394531 75.300781 26.394531 Z M 75.300781 37.5 C 72.820312 37.5 70.800781 35.507812 70.800781 33.054688 C 70.800781 30.605469 72.820312 28.613281 75.300781 28.613281 C 77.78125 28.613281 79.800781 30.605469 79.800781 33.054688 C 79.800781 35.507812 77.78125 37.5 75.300781 37.5 Z M 75.300781 37.5 "/>
<path style=" stroke:none;fill-rule:nonzero;fill:url(#linear1);" d="M 86.550781 19.308594 L 84.300781 19.308594 L 84.300781 39.253906 L 86.550781 39.253906 Z M 86.550781 19.308594 "/>
<path style=" stroke:none;fill-rule:nonzero;fill:url(#linear2);" d="M 67.425781 26.34375 C 65.699219 26.34375 64.121094 26.988281 62.925781 28.042969 L 62.925781 26.621094 L 60.675781 26.621094 L 60.675781 39.253906 L 62.925781 39.253906 L 62.925781 33.003906 C 62.925781 30.554688 64.945312 28.5625 67.425781 28.5625 C 67.425781 28.5625 67.425781 26.34375 67.425781 26.34375 Z M 67.425781 26.34375 "/>
<path style=" stroke:none;fill-rule:nonzero;fill:url(#linear3);" d="M 45.476562 33.058594 C 45.476562 29.3125 48.378906 26.394531 52.042969 26.394531 C 55.703125 26.394531 58.375 29.003906 58.425781 33.597656 L 47.804688 33.597656 C 48.011719 35.898438 49.820312 37.628906 52.199219 37.628906 C 53.847656 37.628906 55.179688 36.90625 56.019531 36.078125 L 57.457031 37.628906 C 56.332031 38.789062 54.476562 39.71875 52.199219 39.71875 C 48.328125 39.71875 45.476562 36.777344 45.476562 33.058594 Z M 47.910156 31.664062 L 55.886719 31.664062 C 55.574219 29.542969 53.898438 28.40625 51.910156 28.433594 C 50 28.433594 48.378906 29.699219 47.910156 31.664062 Z M 47.910156 31.664062 "/>
<path style=" stroke:none;fill-rule:nonzero;fill:url(#linear4);" d="M 99.769531 26.671875 L 99.769531 27.859375 C 98.613281 26.941406 97.148438 26.394531 95.550781 26.394531 C 91.828125 26.394531 88.800781 29.382812 88.800781 33.054688 C 88.800781 36.730469 91.828125 39.71875 95.550781 39.71875 C 97.148438 39.71875 98.613281 39.167969 99.769531 38.253906 L 99.769531 39.253906 L 102.019531 39.253906 L 102.019531 26.671875 Z M 99.769531 34.585938 C 99.136719 36.285156 97.488281 37.5 95.550781 37.5 C 93.070312 37.5 91.050781 35.507812 91.050781 33.054688 C 91.050781 30.605469 93.070312 28.613281 95.550781 28.613281 C 97.488281 28.613281 99.136719 29.828125 99.769531 31.523438 C 99.949219 32.003906 100.050781 32.519531 100.050781 33.054688 C 100.050781 33.59375 99.949219 34.109375 99.769531 34.585938 Z M 99.769531 34.585938 "/>
<path style=" stroke:none;fill-rule:nonzero;fill:url(#linear5);" d="M 40.976562 26.671875 L 40.976562 27.859375 C 39.820312 26.941406 38.351562 26.394531 36.757812 26.394531 C 33.035156 26.394531 30.007812 29.382812 30.007812 33.054688 C 30.007812 36.730469 33.035156 39.71875 36.757812 39.71875 C 38.351562 39.71875 39.820312 39.167969 40.976562 38.253906 L 40.976562 39.253906 L 43.226562 39.253906 L 43.226562 26.671875 Z M 40.976562 34.585938 C 40.339844 36.285156 38.691406 37.5 36.757812 37.5 C 34.273438 37.5 32.257812 35.507812 32.257812 33.054688 C 32.257812 30.605469 34.273438 28.613281 36.757812 28.613281 C 38.691406 28.613281 40.339844 29.828125 40.976562 31.523438 C 41.152344 32.003906 41.257812 32.519531 41.257812 33.054688 C 41.257812 33.59375 41.152344 34.109375 40.976562 34.585938 Z M 40.976562 34.585938 "/>
<path style=" stroke:none;fill-rule:nonzero;fill:url(#linear6);" d="M 105.394531 19.308594 L 105.394531 39.253906 L 107.648438 39.253906 L 107.648438 38.253906 C 108.804688 39.167969 110.269531 39.71875 111.863281 39.71875 C 115.589844 39.71875 118.617188 36.730469 118.617188 33.054688 C 118.617188 29.382812 115.589844 26.390625 111.863281 26.390625 C 110.269531 26.390625 108.804688 26.941406 107.648438 27.859375 L 107.648438 19.308594 Z M 107.363281 33.054688 C 107.363281 32.515625 107.46875 32.003906 107.648438 31.523438 C 108.28125 29.828125 109.929688 28.613281 111.863281 28.613281 C 114.347656 28.613281 116.367188 30.605469 116.367188 33.054688 C 116.367188 35.503906 114.347656 37.5 111.863281 37.5 C 109.929688 37.5 108.28125 36.285156 107.648438 34.585938 C 107.46875 34.109375 107.363281 33.59375 107.363281 33.054688 Z M 107.363281 33.054688 "/>
<path style=" stroke:none;fill-rule:nonzero;fill:url(#linear7);" d="M 33.75 15.023438 L 27.285156 3.96875 C 27.238281 3.886719 27.136719 3.859375 27.054688 3.90625 L 15.855469 10.289062 C 15.792969 10.328125 15.761719 10.398438 15.773438 10.46875 L 19.40625 27.984375 L 18.875 28.578125 C 17.980469 29.570312 17.226562 30.109375 15.789062 30.109375 C 14.179688 30.109375 13.421875 29.269531 12.226562 27.789062 C 10.816406 26.042969 9.0625 23.875 4.859375 23.820312 C 4.765625 23.816406 4.6875 23.894531 4.6875 23.984375 L 4.6875 25.765625 C 4.6875 25.855469 4.765625 25.925781 4.855469 25.929688 C 8.03125 25.980469 9.257812 27.496094 10.554688 29.105469 C 11.734375 30.5625 13.070312 32.21875 15.789062 32.21875 C 18.136719 32.21875 19.425781 31.140625 20.472656 29.976562 L 24.332031 25.683594 L 33.730469 15.21875 C 33.777344 15.164062 33.785156 15.085938 33.75 15.023438 Z M 33.75 15.023438 "/>
</g>
</svg>
