<?xml version="1.0" encoding="UTF-8"?>
<svg xmlns="http://www.w3.org/2000/svg" xmlns:xlink="http://www.w3.org/1999/xlink" width="126px" height="px" viewBox="0 0 126 126" version="1.1">
<g id="surface1">
<path style=" stroke:none;fill-rule:nonzero;fill:rgb(0%,0%,0%);fill-opacity:1;" d="M 58.878906 0.0976562 C 58.609375 0.121094 57.746094 0.210938 56.972656 0.269531 C 39.09375 1.882812 22.347656 11.527344 11.742188 26.355469 C 5.839844 34.597656 2.0625 43.949219 0.632812 53.851562 C 0.128906 57.308594 0.0664062 58.332031 0.0664062 63.019531 C 0.0664062 67.707031 0.128906 68.726562 0.632812 72.183594 C 4.054688 95.820312 20.871094 115.675781 43.683594 123.035156 C 47.769531 124.351562 52.074219 125.25 56.972656 125.789062 C 58.878906 126 67.121094 126 69.027344 125.789062 C 77.480469 124.855469 84.640625 122.765625 91.703125 119.160156 C 92.785156 118.605469 92.996094 118.457031 92.847656 118.335938 C 92.75 118.261719 88.136719 112.074219 82.597656 104.59375 L 72.535156 90.996094 L 59.925781 72.332031 C 52.984375 62.070312 47.277344 53.679688 47.226562 53.679688 C 47.175781 53.667969 47.128906 61.960938 47.105469 72.085938 C 47.066406 89.816406 47.054688 90.527344 46.832031 90.949219 C 46.511719 91.550781 46.265625 91.796875 45.75 92.066406 C 45.355469 92.265625 45.011719 92.300781 43.15625 92.300781 L 41.027344 92.300781 L 40.460938 91.945312 C 40.089844 91.710938 39.820312 91.402344 39.636719 91.046875 L 39.378906 90.492188 L 39.402344 65.824219 L 39.4375 41.144531 L 39.820312 40.664062 C 40.015625 40.40625 40.433594 40.074219 40.730469 39.914062 C 41.234375 39.667969 41.433594 39.640625 43.558594 39.640625 C 46.070312 39.640625 46.488281 39.742188 47.140625 40.453125 C 47.324219 40.652344 54.152344 50.9375 62.324219 63.324219 C 70.492188 75.714844 81.664062 92.632812 87.152344 100.9375 L 97.117188 116.035156 L 97.621094 115.703125 C 102.089844 112.796875 106.8125 108.664062 110.554688 104.359375 C 118.511719 95.214844 123.644531 84.070312 125.367188 72.183594 C 125.871094 68.726562 125.933594 67.707031 125.933594 63.019531 C 125.933594 58.332031 125.871094 57.308594 125.367188 53.851562 C 121.945312 30.21875 105.128906 10.359375 82.316406 3.003906 C 78.292969 1.699219 74.011719 0.800781 69.214844 0.257812 C 68.03125 0.136719 59.898438 0 58.878906 0.0976562 Z M 84.640625 38.164062 C 85.230469 38.460938 85.710938 39.027344 85.882812 39.617188 C 85.984375 39.9375 86.007812 46.777344 85.984375 62.195312 L 85.945312 84.316406 L 82.046875 78.335938 L 78.132812 72.355469 L 78.132812 56.277344 C 78.132812 45.878906 78.183594 40.035156 78.257812 39.753906 C 78.453125 39.0625 78.882812 38.523438 79.472656 38.203125 C 79.980469 37.945312 80.164062 37.917969 82.09375 37.917969 C 83.914062 37.917969 84.234375 37.945312 84.640625 38.164062 Z M 84.640625 38.164062 "/>
<path style=" stroke:none;fill-rule:nonzero;fill:rgb(0%,0%,0%);fill-opacity:1;" d="M 96.503906 116.304688 C 96.070312 116.574219 95.9375 116.761719 96.316406 116.550781 C 96.589844 116.390625 97.03125 116.058594 96.957031 116.046875 C 96.921875 116.046875 96.710938 116.167969 96.503906 116.304688 Z M 95.652344 116.859375 C 95.433594 117.03125 95.433594 117.042969 95.703125 116.90625 C 95.851562 116.832031 95.972656 116.746094 95.972656 116.722656 C 95.972656 116.625 95.910156 116.648438 95.652344 116.859375 Z M 95.039062 117.226562 C 94.816406 117.398438 94.816406 117.414062 95.085938 117.277344 C 95.234375 117.203125 95.359375 117.117188 95.359375 117.09375 C 95.359375 116.992188 95.296875 117.019531 95.039062 117.226562 Z M 94.421875 117.597656 C 94.203125 117.769531 94.203125 117.78125 94.472656 117.644531 C 94.621094 117.570312 94.742188 117.484375 94.742188 117.460938 C 94.742188 117.363281 94.679688 117.386719 94.421875 117.597656 Z M 93.488281 118.089844 C 93.019531 118.335938 93.046875 118.433594 93.511719 118.199219 C 93.722656 118.089844 93.882812 117.976562 93.882812 117.953125 C 93.882812 117.867188 93.871094 117.878906 93.488281 118.089844 Z M 93.488281 118.089844 "/>
</g>
</svg>
