<?xml version="1.0" encoding="UTF-8"?>
<svg xmlns="http://www.w3.org/2000/svg" xmlns:xlink="http://www.w3.org/1999/xlink" width="126px" height="px" viewBox="0 0 126 126" version="1.1">
<g id="surface1">
<path style=" stroke:none;fill-rule:nonzero;fill:rgb(0%,0%,0%);fill-opacity:1;" d="M 62.855469 55.871094 C 57.9375 55.871094 54.390625 59.078125 54.390625 63.890625 C 54.390625 68.703125 58.382812 71.914062 63.304688 71.914062 C 66.277344 71.914062 68.894531 70.738281 70.519531 68.753906 L 67.109375 66.785156 C 66.207031 67.769531 64.839844 68.34375 63.304688 68.34375 C 61.167969 68.34375 59.355469 67.230469 58.679688 65.445312 L 71.167969 65.445312 C 71.265625 64.949219 71.324219 64.429688 71.324219 63.886719 C 71.324219 59.078125 67.777344 55.871094 62.855469 55.871094 Z M 58.640625 62.332031 C 59.199219 60.554688 60.722656 59.433594 62.851562 59.433594 C 64.988281 59.433594 66.511719 60.554688 67.066406 62.332031 Z M 110.847656 55.871094 C 105.925781 55.871094 102.378906 59.078125 102.378906 63.890625 C 102.378906 68.703125 106.371094 71.914062 111.292969 71.914062 C 114.265625 71.914062 116.886719 70.738281 118.507812 68.753906 L 115.097656 66.785156 C 114.199219 67.769531 112.832031 68.34375 111.292969 68.34375 C 109.15625 68.34375 107.34375 67.230469 106.671875 65.445312 L 119.160156 65.445312 C 119.257812 64.949219 119.316406 64.429688 119.316406 63.886719 C 119.316406 59.078125 115.765625 55.871094 110.847656 55.871094 Z M 106.636719 62.332031 C 107.191406 60.554688 108.71875 59.433594 110.847656 59.433594 C 112.980469 59.433594 114.507812 60.554688 115.058594 62.332031 Z M 89.242188 63.890625 C 89.242188 66.566406 90.988281 68.347656 93.699219 68.347656 C 95.535156 68.347656 96.910156 67.515625 97.621094 66.15625 L 101.042969 68.128906 C 99.625 70.492188 96.96875 71.914062 93.699219 71.914062 C 88.773438 71.914062 85.230469 68.703125 85.230469 63.890625 C 85.230469 59.078125 88.777344 55.871094 93.699219 55.871094 C 96.96875 55.871094 99.621094 57.289062 101.042969 59.652344 L 97.621094 61.628906 C 96.910156 60.269531 95.535156 59.433594 93.699219 59.433594 C 90.992188 59.433594 89.242188 61.21875 89.242188 63.890625 Z M 126 50.96875 L 126 71.46875 L 121.988281 71.46875 L 121.988281 50.96875 Z M 16.46875 48.738281 L 32.933594 77.261719 L 0 77.261719 Z M 57.636719 50.96875 L 45.289062 72.359375 L 32.941406 50.96875 L 37.570312 50.96875 L 45.289062 64.335938 L 53.007812 50.96875 Z M 83.894531 56.316406 L 83.894531 60.632812 C 83.449219 60.503906 82.976562 60.414062 82.46875 60.414062 C 79.878906 60.414062 78.011719 62.199219 78.011719 64.871094 L 78.011719 71.46875 L 74 71.46875 L 74 56.316406 L 78.011719 56.316406 L 78.011719 60.414062 C 78.011719 58.152344 80.644531 56.316406 83.894531 56.316406 Z M 83.894531 56.316406 "/>
</g>
</svg>
